<svg width="24" height="24" viewBox="0 0 24 24" fill="none" xmlns="http://www.w3.org/2000/svg">
<path d="M5 6C5 4.34315 6.34315 3 8 3H16C17.6569 3 19 4.34315 19 6V18C19 19.6569 17.6569 21 16 21H8C6.34315 21 5 19.6569 5 18V6Z" stroke="#3B5166" stroke-width="1.5" stroke-linecap="round" stroke-linejoin="round"/>
<path d="M16 3H15.8889C14.9684 3 14.2222 3.3731 14.2222 3.83333C14.2222 3.92538 14.073 4 13.8889 4H10.1111C9.92702 4 9.77778 3.92538 9.77778 3.83333C9.77778 3.3731 9.03159 3 8.11111 3H8" stroke="#3B5166" stroke-width="1.5" stroke-linecap="round" stroke-linejoin="round"/>
<path d="M12 9L12 15M12 15L15 12M12 15L9 12" stroke="#3B5166" stroke-width="1.5" stroke-linecap="round" stroke-linejoin="round"/>
</svg>
