<svg width="20" height="21" viewBox="0 0 20 21" fill="none" xmlns="http://www.w3.org/2000/svg">
<path d="M14 6.43417V2.93482C14 2.10308 14 1.68721 13.8248 1.43164C13.6717 1.20835 13.4346 1.05667 13.1678 1.01125C12.8623 0.959268 12.2552 1.08505 11.5 1.43359L2.85901 4.46601C2.18551 4.77686 1.84875 4.93229 1.60211 5.17334C1.38406 5.38644 1.21762 5.64657 1.1155 5.93385C1 6.25881 1 7.73985 1 8.48163V13.4342M1 9.63417L1 16.2342C1 17.3543 1 17.9143 1.21799 18.3421C1.40973 18.7185 1.71569 19.0244 2.09202 19.2162C2.51984 19.4342 3.07989 19.4342 4.2 19.4342H15.8C16.9201 19.4342 17.4802 19.4342 17.908 19.2162C18.2843 19.0244 18.5903 18.7185 18.782 18.3421C19 17.9143 19 17.3543 19 16.2342V9.63417C19 8.51406 19 7.95401 18.782 7.52619C18.5903 7.14986 18.2843 6.8439 17.908 6.65216C17.4802 6.43417 16.9201 6.43417 15.8 6.43417L4.2 6.43417C3.0799 6.43417 2.51984 6.43417 2.09202 6.65216C1.7157 6.8439 1.40973 7.14986 1.21799 7.52619C1 7.95401 1 8.51406 1 9.63417Z" stroke="#3B5166" stroke-width="1.5" stroke-linecap="round" stroke-linejoin="round"/>
</svg>
