<svg width="22" height="16" viewBox="0 0 22 16" fill="none" xmlns="http://www.w3.org/2000/svg">
<path d="M21.0021 4.88965V4.73407C21.0021 3.42702 21.0021 2.7735 20.7507 2.27427C20.5295 1.83514 20.1765 1.47812 19.7424 1.25437C19.2489 1 18.6028 1 17.3107 1H17.1569M21.0021 11.1131V11.2687C21.0021 12.5757 21.0021 13.2293 20.7507 13.7285C20.5295 14.1676 20.1765 14.5246 19.7424 14.7484C19.2489 15.0028 18.6028 15.0028 17.3107 15.0028H17.1569" stroke="#32A35E" stroke-width="1.5" stroke-linecap="round" stroke-linejoin="round"/>
<path d="M4.84519 1H4.69138C3.39928 1 2.75323 1 2.25971 1.25437C1.82559 1.47812 1.47265 1.83514 1.25146 2.27427C1 2.7735 1 3.42702 1 4.73407V4.88965M4.84519 15.0028H4.69138C3.39928 15.0028 2.75323 15.0028 2.25971 14.7484C1.82559 14.5246 1.47265 14.1676 1.25146 13.7285C1 13.2293 1 12.5757 1 11.2687V11.1131" stroke="#32A35E" stroke-width="1.5" stroke-linecap="round" stroke-linejoin="round"/>
<path d="M5.2323 4.10938L5.2323 9.94285V12.0173M13.4354 4.10938V12.0173M9.33384 4.10938V7.67439V12.0173M17.1524 4.10938V9.94285V12.0173" stroke="#32A35E" stroke-width="1.5" stroke-linecap="round" stroke-linejoin="round"/>
</svg>
