<svg width="48" height="48" viewBox="0 0 48 48" fill="none" xmlns="http://www.w3.org/2000/svg">
<g clip-path="url(#clip0_2476_14416)">
<circle cx="24" cy="24" r="24" fill="#F5F5F5"/>
<path d="M20.25 32.75C20.25 33.6875 19.9875 34.575 19.525 35.325C18.6625 36.775 17.075 37.75 15.25 37.75C13.425 37.75 11.8375 36.775 10.975 35.325C10.5125 34.575 10.25 33.6875 10.25 32.75C10.25 29.9875 12.4875 27.75 15.25 27.75C18.0125 27.75 20.25 29.9875 20.25 32.75Z" stroke="#0A2540" stroke-width="1.5" stroke-miterlimit="10" stroke-linecap="round" stroke-linejoin="round"/>
<path d="M13.3047 32.7484L14.5422 33.9859L17.2047 31.5234" stroke="#0A2540" stroke-width="1.5" stroke-linecap="round" stroke-linejoin="round"/>
<path d="M31.1922 17.8125C30.8922 17.7625 30.5797 17.75 30.2547 17.75H17.7547C17.4047 17.75 17.0672 17.775 16.7422 17.825C16.9172 17.475 17.1672 17.15 17.4672 16.85L21.5297 12.775C23.2422 11.075 26.0172 11.075 27.7297 12.775L29.9172 14.9874C30.7172 15.7749 31.1422 16.775 31.1922 17.8125Z" stroke="#0A2540" stroke-width="1.5" stroke-linecap="round" stroke-linejoin="round"/>
<path d="M36.5 24V30.25C36.5 34 34 36.5 30.25 36.5H18.5375C18.925 36.175 19.2625 35.775 19.525 35.325C19.9875 34.575 20.25 33.6875 20.25 32.75C20.25 29.9875 18.0125 27.75 15.25 27.75C13.75 27.75 12.4125 28.4125 11.5 29.45V24C11.5 20.6 13.55 18.225 16.7375 17.825C17.0625 17.775 17.4 17.75 17.75 17.75H30.25C30.575 17.75 30.8875 17.7625 31.1875 17.8125C34.4125 18.1875 36.5 20.575 36.5 24Z" stroke="#0A2540" stroke-width="1.5" stroke-linecap="round" stroke-linejoin="round"/>
<path d="M36.5 24.625H32.75C31.375 24.625 30.25 25.75 30.25 27.125C30.25 28.5 31.375 29.625 32.75 29.625H36.5" stroke="#0A2540" stroke-width="1.5" stroke-linecap="round" stroke-linejoin="round"/>
</g>
<defs>
<clipPath id="clip0_2476_14416">
<rect width="48" height="48" fill="white"/>
</clipPath>
</defs>
</svg>
