<svg width="48" height="48" viewBox="0 0 48 48" fill="none" xmlns="http://www.w3.org/2000/svg">
<g clip-path="url(#clip0_2476_14433)">
<circle cx="24" cy="24" r="24" fill="#F5F5F5"/>
<path d="M20.875 26.1844C20.875 27.3969 21.8125 28.3719 22.9625 28.3719H25.3125C26.3125 28.3719 27.125 27.5219 27.125 26.4594C27.125 25.3219 26.625 24.9094 25.8875 24.6469L22.125 23.3344C21.3875 23.0719 20.8875 22.6719 20.8875 21.5219C20.8875 20.4719 21.7 19.6094 22.7 19.6094H25.05C26.2 19.6094 27.1375 20.5844 27.1375 21.7969" stroke="#0A2540" stroke-width="1.5" stroke-linecap="round" stroke-linejoin="round"/>
<path d="M24 18.375V29.625" stroke="#0A2540" stroke-width="1.5" stroke-linecap="round" stroke-linejoin="round"/>
<path d="M36.5 24C36.5 30.9 30.9 36.5 24 36.5C17.1 36.5 11.5 30.9 11.5 24C11.5 17.1 17.1 11.5 24 11.5" stroke="#0A2540" stroke-width="1.5" stroke-linecap="round" stroke-linejoin="round"/>
<path d="M30.25 12.75V17.75H35.25" stroke="#0A2540" stroke-width="1.5" stroke-linecap="round" stroke-linejoin="round"/>
<path d="M36.5 11.5L30.25 17.75" stroke="#0A2540" stroke-width="1.5" stroke-linecap="round" stroke-linejoin="round"/>
</g>
<defs>
<clipPath id="clip0_2476_14433">
<rect width="48" height="48" fill="white"/>
</clipPath>
</defs>
</svg>
