<svg width="42" height="42" viewBox="0 0 42 42" fill="none" xmlns="http://www.w3.org/2000/svg">
<circle cx="21" cy="21" r="21" fill="#EDF5FB"/>
<path d="M22 20H26.8C27.9201 20 28.4802 20 28.908 20.218C29.2843 20.4097 29.5903 20.7157 29.782 21.092C30 21.5198 30 22.0799 30 23.2V30M22 30V15.2C22 14.0799 22 13.5198 21.782 13.092C21.5903 12.7157 21.2843 12.4097 20.908 12.218C20.4802 12 19.9201 12 18.8 12H15.2C14.0799 12 13.5198 12 13.092 12.218C12.7157 12.4097 12.4097 12.7157 12.218 13.092C12 13.5198 12 14.0799 12 15.2V30M31 30H11M15.5 16H18.5M15.5 20H18.5M15.5 24H18.5" stroke="#3B5166" stroke-width="1.5" stroke-linecap="round" stroke-linejoin="round"/>
</svg>
