<svg width="24" height="24" viewBox="0 0 24 24" fill="none" xmlns="http://www.w3.org/2000/svg">
<g clip-path="url(#clip0_642_10995)">
<path d="M18.8979 8.16704L11.9985 12M11.9985 12L5.09918 8.16704M11.9985 12L11.9986 19.7111M19.3038 15.2943V8.70576C19.3038 8.42764 19.3038 8.28858 19.2628 8.16455C19.2265 8.05483 19.1673 7.95412 19.089 7.86914C19.0005 7.77309 18.8789 7.70555 18.6358 7.57049L12.6293 4.23354C12.3991 4.10565 12.284 4.04171 12.1621 4.01664C12.0542 3.99445 11.9429 3.99445 11.835 4.01664C11.7132 4.04171 11.5981 4.10565 11.3679 4.23354L5.36136 7.57049C5.11824 7.70556 4.99668 7.77309 4.90816 7.86914C4.82985 7.95412 4.77059 8.05483 4.73434 8.16456C4.69336 8.28858 4.69336 8.42764 4.69336 8.70576V15.2943C4.69336 15.5724 4.69336 15.7115 4.73434 15.8355C4.77059 15.9453 4.82985 16.046 4.90816 16.1309C4.99668 16.227 5.11824 16.2945 5.36136 16.4296L11.3679 19.7665C11.5981 19.8944 11.7132 19.9584 11.835 19.9834C11.9429 20.0056 12.0542 20.0056 12.1621 19.9834C12.284 19.9584 12.3991 19.8944 12.6293 19.7665L18.6358 16.4296C18.8789 16.2945 19.0005 16.227 19.089 16.1309C19.1673 16.046 19.2265 15.9453 19.2628 15.8355C19.3038 15.7115 19.3038 15.5724 19.3038 15.2943Z" stroke="#3B5166" stroke-width="1.5" stroke-linecap="round" stroke-linejoin="round"/>
<path d="M15.646 9.97141L8.34082 5.91296" stroke="#3B5166" stroke-width="1.5" stroke-linecap="round" stroke-linejoin="round"/>
<path d="M22.9998 15.3C22.9998 19.557 19.5568 23 15.2998 23L16.4548 21.075" stroke="#3B5166" stroke-width="1.5" stroke-linecap="round" stroke-linejoin="round"/>
<path d="M1 8.7C1 4.443 4.443 1 8.7 1L7.54501 2.925" stroke="#3B5166" stroke-width="1.5" stroke-linecap="round" stroke-linejoin="round"/>
</g>
<defs>
<clipPath id="clip0_642_10995">
<rect width="24" height="24" fill="white"/>
</clipPath>
</defs>
</svg>
