<svg width="25" height="25" viewBox="0 0 25 25" fill="none" xmlns="http://www.w3.org/2000/svg">
<path d="M18.2923 6.28135L14.8729 6.70607C14.7536 6.72052 14.7048 6.86511 14.7879 6.95005L15.7765 7.93864L13.0023 10.7128C12.9754 10.74 12.9603 10.7767 12.9603 10.8149C12.9603 10.8532 12.9754 10.8899 13.0023 10.917L13.8174 11.7321C13.8735 11.7882 13.9656 11.7882 14.0217 11.7321L16.7977 8.95614L17.7862 9.94473C17.8053 9.96379 17.8294 9.97709 17.8557 9.98311C17.8819 9.98913 17.9094 9.98762 17.9349 9.97875C17.9603 9.96988 17.9828 9.95402 17.9997 9.93298C18.0165 9.91194 18.0271 9.88657 18.0302 9.85978L18.4531 6.4422C18.4561 6.42038 18.454 6.39815 18.447 6.37727C18.44 6.3564 18.4282 6.33742 18.4126 6.32185C18.3971 6.30627 18.3781 6.29451 18.3572 6.28748C18.3363 6.28046 18.3141 6.27836 18.2923 6.28135ZM10.3691 13.5503C10.342 13.5234 10.3053 13.5083 10.267 13.5083C10.2288 13.5083 10.1921 13.5234 10.1649 13.5503L7.39072 16.3263L6.40213 15.3377C6.38306 15.3186 6.359 15.3053 6.33271 15.2993C6.30643 15.2933 6.27897 15.2948 6.25351 15.3036C6.22804 15.3125 6.20559 15.3284 6.18872 15.3494C6.17185 15.3705 6.16126 15.3958 6.15815 15.4226L5.73343 18.8402C5.72259 18.9342 5.8003 19.0119 5.89428 19.001L9.31367 18.5763C9.43295 18.5619 9.48175 18.4173 9.39861 18.3323L8.41003 17.3438L11.186 14.5678C11.242 14.5117 11.242 14.4196 11.186 14.3635L10.3691 13.5503Z" fill="#262626"/>
</svg>
