<svg width="17" height="17" viewBox="0 0 17 17" fill="none" xmlns="http://www.w3.org/2000/svg">
<path d="M14.0977 7.99349V11.9935C14.0977 13.4662 12.9037 14.6602 11.431 14.6602H4.76432C3.29156 14.6602 2.09766 13.4662 2.09766 11.9935V5.32682C2.09766 3.85406 3.29156 2.66016 4.76432 2.66016H8.76432" stroke="#B6B6B6" stroke-width="1.5" stroke-linecap="round"/>
<path d="M12.0461 3.01215C12.2715 2.78677 12.5772 2.66016 12.8959 2.66016C13.2146 2.66016 13.5203 2.78677 13.7457 3.01215C13.971 3.23752 14.0977 3.5432 14.0977 3.86193C14.0977 4.18065 13.971 4.48633 13.7457 4.7117L8.36373 10.0936L6.09766 10.6602L6.66418 8.39408L12.0461 3.01215Z" stroke="#B6B6B6" stroke-width="1.5" stroke-linecap="round" stroke-linejoin="round"/>
</svg>
