<svg width="22" height="22" viewBox="0 0 22 22" fill="none" xmlns="http://www.w3.org/2000/svg">
<path d="M1 8.00159V6.00159C1 3.00159 3 1.00159 6 1.00159H16C19 1.00159 21 3.00159 21 6.00159V8.00159" stroke="#5B6D7F" stroke-width="1.5" stroke-miterlimit="10" stroke-linecap="round" stroke-linejoin="round"/>
<path d="M1 14V16C1 19 3 21 6 21H16C19 21 21 19 21 16V14" stroke="#5B6D7F" stroke-width="1.5" stroke-miterlimit="10" stroke-linecap="round" stroke-linejoin="round"/>
<path d="M5.69922 8.25781L10.9992 11.3278L16.2592 8.27783" stroke="#5B6D7F" stroke-width="1.5" stroke-linecap="round" stroke-linejoin="round"/>
<path d="M11 16.7687V11.3187" stroke="#5B6D7F" stroke-width="1.5" stroke-linecap="round" stroke-linejoin="round"/>
<path d="M9.76022 5.28786L6.56023 7.06789C5.84023 7.46789 5.24023 8.47788 5.24023 9.30788V12.6979C5.24023 13.5279 5.83023 14.5379 6.56023 14.9379L9.76022 16.7179C10.4402 17.0979 11.5602 17.0979 12.2502 16.7179L15.4502 14.9379C16.1702 14.5379 16.7702 13.5279 16.7702 12.6979V9.30788C16.7702 8.47788 16.1802 7.46789 15.4502 7.06789L12.2502 5.28786C11.5602 4.89786 10.4402 4.89786 9.76022 5.28786Z" stroke="#5B6D7F" stroke-width="1.5" stroke-linecap="round" stroke-linejoin="round"/>
</svg>
