<svg width="17" height="18" viewBox="0 0 17 18" fill="none" xmlns="http://www.w3.org/2000/svg">
<path d="M1 3.87299V10.9841C1 11.3878 1.24274 11.7519 1.61538 11.9072L7.66667 14.4285M1 3.87299L6.89744 1.41573C7.38974 1.2106 7.94359 1.2106 8.4359 1.41573L11 2.4841M1 3.87299L4.33333 5.26188M7.66667 6.65077V14.4285M7.66667 6.65077L14.3333 3.87299M7.66667 6.65077L4.33333 5.26188M7.66667 14.4285L13.7179 11.9072C14.0906 11.7519 14.3333 11.3878 14.3333 10.9841V3.87299M14.3333 3.87299L11 2.4841M4.33333 5.26188L11 2.4841" stroke="#8E9BA7" stroke-linejoin="round"/>
<path d="M15.5234 13.4624L9.874 16.1996" stroke="#8E9BA7" stroke-linecap="round"/>
<path d="M14.9697 13.0359L15.8083 13.3271L15.5171 14.1658" stroke="#8E9BA7" stroke-linecap="round" stroke-linejoin="round"/>
<path d="M10.4327 16.6311L9.59403 16.3398L9.88526 15.5012" stroke="#8E9BA7" stroke-linecap="round" stroke-linejoin="round"/>
</svg>
