<svg width="25" height="25" viewBox="0 0 25 25" fill="none" xmlns="http://www.w3.org/2000/svg">
<path d="M11.9715 3.76094L9.85646 6.48109C9.78243 6.57573 9.85029 6.71241 9.96914 6.71358L11.3672 6.71228L11.3709 10.6356C11.3711 10.6738 11.3864 10.7104 11.4135 10.7374C11.4405 10.7644 11.4772 10.7797 11.5154 10.7798L12.6681 10.7788C12.7473 10.7787 12.8125 10.7135 12.8124 10.6342L12.8087 6.70838L14.2068 6.70708C14.2338 6.70705 14.2602 6.69942 14.283 6.68506C14.3058 6.67071 14.3242 6.65021 14.3359 6.62593C14.3476 6.60164 14.3522 6.57454 14.3493 6.54774C14.3463 6.52093 14.3358 6.49551 14.319 6.47439L12.199 3.76072C12.1856 3.74319 12.1684 3.72897 12.1487 3.7192C12.1289 3.70942 12.1072 3.70434 12.0852 3.70436C12.0631 3.70438 12.0414 3.7095 12.0217 3.71931C12.002 3.72913 11.9848 3.74338 11.9715 3.76094ZM11.5189 14.5038C11.4806 14.504 11.444 14.5193 11.417 14.5464C11.39 14.5734 11.3747 14.6101 11.3746 14.6483L11.3795 18.5729L9.98145 18.5742C9.95448 18.5742 9.92807 18.5818 9.90524 18.5962C9.88241 18.6106 9.86408 18.631 9.85237 18.6553C9.84065 18.6796 9.83602 18.7067 9.83899 18.7335C9.84197 18.7603 9.85244 18.7857 9.8692 18.8069L11.988 21.5218C12.0469 21.5959 12.1568 21.5958 12.2155 21.5216L14.3305 18.8014C14.4045 18.7068 14.3367 18.5701 14.2178 18.569L12.8198 18.5703L12.8161 14.6444C12.816 14.5652 12.7508 14.5001 12.6716 14.5001L11.5189 14.5038Z" fill="#262626"/>
</svg>
