<svg width="21" height="20" viewBox="0 0 21 20" fill="none" xmlns="http://www.w3.org/2000/svg">
<path d="M6 9.48799C6 9.07758 6.18386 8.68874 6.50107 8.42832L8.95318 6.41517C9.62743 5.86161 10.5989 5.86161 11.2731 6.41517L13.7252 8.42832C14.0424 8.68874 14.2263 9.07758 14.2263 9.48799V12.7751C14.2263 13.5323 13.6125 14.1462 12.8553 14.1462H7.37105C6.61384 14.1462 6 13.5323 6 12.7751V9.48799Z" stroke="#5B6D7F" stroke-width="1.5"/>
<path d="M11.4843 14.1464V12.3183C11.4843 11.5611 10.8704 10.9473 10.1132 10.9473C9.35603 10.9473 8.74219 11.5611 8.74219 12.3183V14.1464" stroke="#5B6D7F" stroke-width="1.5"/>
<path d="M3.89167 9.23319L2.44167 7.7832L1 9.23319" stroke="#5B6D7F" stroke-width="1.5" stroke-linecap="round" stroke-linejoin="round"/>
<path d="M16.4414 10.2002L17.8914 11.6502L19.3414 10.2002" stroke="#5B6D7F" stroke-width="1.5" stroke-linecap="round" stroke-linejoin="round"/>
<path d="M17.8823 11.65V9.71667C17.8823 5.45001 14.424 2 10.1656 2C7.73229 2 5.55729 3.13336 4.14062 4.89169" stroke="#5B6D7F" stroke-width="1.5" stroke-linecap="round" stroke-linejoin="round"/>
<path d="M2.44922 7.7832V9.71654C2.44922 13.9832 5.90755 17.4332 10.1659 17.4332C12.5992 17.4332 14.7742 16.2999 16.1909 14.5415" stroke="#5B6D7F" stroke-width="1.5" stroke-linecap="round" stroke-linejoin="round"/>
</svg>
