<svg width="22" height="23" viewBox="0 0 22 23" fill="none" xmlns="http://www.w3.org/2000/svg">
<path d="M4 14.2864C2.14864 15.1031 1 16.2412 1 17.5C1 19.9853 5.47715 22 11 22C16.5228 22 21 19.9853 21 17.5C21 16.2412 19.8514 15.1031 18 14.2864" stroke="#3B5166" stroke-width="1.5" stroke-linecap="round" stroke-linejoin="round"/>
<path d="M11.4665 9.57179C12.7587 9.57179 13.8063 8.52423 13.8063 7.23199C13.8063 5.93975 12.7587 4.89218 11.4665 4.89218C10.1742 4.89218 9.12665 5.93975 9.12665 7.23199C9.12665 8.52423 10.1742 9.57179 11.4665 9.57179Z" stroke="#3B5166" stroke-width="1.5"/>
<path d="M5.18203 5.8671C6.6594 -0.627363 16.2811 -0.619864 17.751 5.8746C18.6134 9.68428 16.0774 13.5052 14.0001 15.5C12.4927 16.9549 10.5149 16.9549 9.00006 15.5C6.93023 13.5052 4.3196 9.67678 5.18203 5.8671Z" stroke="#3B5166" stroke-width="1.5"/>
</svg>
