<svg width="20" height="16" viewBox="0 0 20 16" fill="none" xmlns="http://www.w3.org/2000/svg">
<path d="M16.2966 7.62657V4.08203L9.45377 6.7106H9.4502V15.1963L9.45377 15.1927L11.8966 14.257H11.7359" stroke="#3B5166" stroke-width="1.5" stroke-miterlimit="10" stroke-linejoin="round"/>
<path d="M2.9093 4.33594H2.9043V4.34094H2.9093V4.33594Z" stroke="#3B5166" stroke-width="1.5" stroke-miterlimit="10" stroke-linejoin="round"/>
<path d="M9.45073 6.71484V15.197H9.44715L2.9043 12.1434V7.71127L7.75073 9.41484L9.44715 6.72199V6.71484H9.45073Z" stroke="#3B5166" stroke-width="1.5" stroke-miterlimit="10" stroke-linejoin="round"/>
<path d="M9.4478 6.71484V6.72199L7.75137 9.41484L2.90494 7.71127L0.901367 7.0077L2.90494 4.33984H2.90851L9.4478 6.71484Z" stroke="#3B5166" stroke-width="1.5" stroke-miterlimit="10" stroke-linejoin="round"/>
<path d="M9.44727 6.72266V6.71484H9.45117L9.44727 6.72266Z" stroke="#3B5166" stroke-width="1.5" stroke-miterlimit="10" stroke-linejoin="round"/>
<path d="M1.00964 3.46417L7.22393 1.20703L9.83 1.91781L3.27564 4.09551L1.00964 3.46417Z" stroke="#3B5166" stroke-width="1.5" stroke-miterlimit="10" stroke-linejoin="round"/>
<path d="M18.4516 3.29225L12.3623 1.32797L9.83008 1.85014L15.9015 3.79657L18.4516 3.29225Z" stroke="#3B5166" stroke-width="1.5" stroke-miterlimit="10" stroke-linejoin="round"/>
<path d="M17.3886 14.4448H13.1134C12.1689 14.4448 11.4033 13.7519 11.4033 12.8971V9.96477C11.4033 9.41428 11.8173 8.93442 12.4074 8.80091L12.7517 8.72302C12.977 8.67205 13.1579 8.52045 13.2313 8.32107C13.4162 7.81907 13.9353 7.48047 14.52 7.48047H15.982C16.5667 7.48047 17.0858 7.81907 17.2707 8.32107C17.3441 8.52045 17.525 8.67205 17.7503 8.72302L18.0945 8.80091C18.6846 8.93442 19.0986 9.41428 19.0986 9.96477V12.8971C19.0986 13.7519 18.333 14.4448 17.3886 14.4448Z" stroke="#3B5166" stroke-width="1.5"/>
<path d="M16.3991 11.3482C16.3991 11.9893 15.8847 12.5089 15.2503 12.5089C14.6159 12.5089 14.1016 11.9893 14.1016 11.3482C14.1016 10.7072 14.6159 10.1875 15.2503 10.1875C15.8847 10.1875 16.3991 10.7072 16.3991 11.3482Z" stroke="#3B5166" stroke-width="1.5"/>
</svg>
