<svg width="25" height="25" viewBox="0 0 25 25" fill="none" xmlns="http://www.w3.org/2000/svg">
<path d="M20.974 12.5276L18.2558 10.41C18.1612 10.3359 18.0245 10.4037 18.0232 10.5225L18.0232 11.9206H14.0999C14.0617 11.9208 14.025 11.936 13.998 11.9631C13.971 11.9901 13.9557 12.0267 13.9555 12.065L13.9555 13.2177C13.9555 13.2969 14.0207 13.3621 14.0999 13.3621L18.0258 13.3621L18.0258 14.7602C18.0258 14.7871 18.0334 14.8136 18.0477 14.8364C18.062 14.8592 18.0825 14.8776 18.1068 14.8893C18.1311 14.9011 18.1582 14.9057 18.185 14.9028C18.2118 14.8998 18.2372 14.8894 18.2583 14.8726L20.974 12.7551C20.9915 12.7418 21.0058 12.7246 21.0155 12.7048C21.0253 12.6851 21.0304 12.6634 21.0304 12.6413C21.0304 12.6193 21.0253 12.5976 21.0155 12.5778C21.0058 12.5581 20.9915 12.5409 20.974 12.5276ZM10.2316 12.065C10.2314 12.0267 10.2161 11.9901 10.1891 11.9631C10.162 11.936 10.1254 11.9208 10.0872 11.9206L6.16258 11.9219L6.16258 10.5238C6.16258 10.4968 6.15497 10.4704 6.14064 10.4476C6.12631 10.4247 6.10583 10.4064 6.08155 10.3946C6.05727 10.3829 6.03018 10.3782 6.00338 10.3812C5.97657 10.3841 5.95114 10.3946 5.93 10.4113L3.21309 12.5276C3.13897 12.5864 3.13897 12.6963 3.21309 12.7551L5.93128 14.8726C6.02585 14.9468 6.16258 14.879 6.16386 14.7602L6.16386 13.3621L10.0897 13.3621C10.1689 13.3621 10.2341 13.2969 10.2341 13.2177L10.2316 12.065Z" fill="#262626"/>
</svg>
