<svg width="81" height="24" viewBox="0 0 81 24" fill="none" xmlns="http://www.w3.org/2000/svg">
<path d="M7.36853 24C2.78807 24 0 21.4444 0 16.7262C0 11.2873 3.58468 7.09338 9.22721 7.09338C13.6085 7.09338 16.5957 9.51803 16.5957 13.974C16.5957 19.413 13.2766 24 7.36853 24ZM4.97871 16.9884C4.97871 18.9542 5.9745 20.0683 7.70028 20.0683C10.4218 20.0683 11.5505 16.202 11.5505 14.1051C11.5505 12.4668 10.8867 11.0251 8.96164 11.0251C6.04078 11.0251 4.97871 14.6293 4.97871 16.9884Z" fill="#5DBA2F"/>
<path d="M31.7312 23.7376H26.9516L24.6281 17.3159C24.2187 16.3213 23.9077 15.2899 23.6993 14.2361C23.5648 15.4037 23.3654 16.5632 23.1019 17.7092L21.8401 23.8034H16.9941L20.446 7.68311H25.4247L27.6154 14.0395C28.0136 15.0225 28.2792 16.0709 28.6112 17.1194C28.7454 15.8651 28.9448 14.6184 29.2086 13.3842L30.4035 7.7481H35.183L31.7312 23.7376Z" fill="#5DBA2F"/>
<path d="M50.6501 11.3529H42.0868L41.6221 13.4498H49.5881L48.7915 17.1851H40.8254L40.3608 19.4786H49.1233L48.2603 23.6725H34.519L37.9709 7.55212H51.4471L50.6501 11.3529Z" fill="#5DBA2F"/>
<path d="M62.4669 15.219L66.4498 23.7378H60.7405L59.7453 21.2478C59.4204 20.4822 59.1541 19.6936 58.9487 18.8887C58.406 19.8133 57.7842 20.6903 57.09 21.5102L55.2313 23.8038H48.9907L56.7575 15.2849L52.9736 7.61755H58.4168L59.0806 9.45234C59.4126 10.3042 59.678 11.2217 59.9436 12.1389C60.541 11.2215 61.2049 10.1731 61.6696 9.58331L63.1966 7.61755H69.1711L62.4669 15.219Z" fill="#5DBA2F"/>
<path d="M72.822 9.05922L71.4283 5.78278L70.5649 5.45508L72.4236 9.64897C72.5564 9.91113 72.8219 10.0421 73.0874 9.91113C73.1533 9.91113 73.2202 9.84613 73.2866 9.78005L75.1453 7.42095L73.1538 6.56904L72.822 9.05922Z" fill="#5DBA2F"/>
<path d="M80.5224 0.016216L68.7062 3.29266C68.1752 3.42374 68.1088 4.01349 68.5734 4.21011L71.4944 5.45515L79.9914 0.737045L73.2862 6.17598L78.0658 8.14185C78.3313 8.33846 78.7296 8.20684 78.9288 7.94523C78.9539 7.91936 78.9728 7.88828 78.9842 7.85426C78.9956 7.82025 78.9991 7.78415 78.9946 7.74861L80.987 0.474886C81.0534 0.0817557 80.8544 -0.0493237 80.5224 0.016216Z" fill="#5DBA2F"/>
</svg>
