<svg width="32" height="25" viewBox="0 0 32 25" fill="none" xmlns="http://www.w3.org/2000/svg">
<path d="M11.9132 22.7956L8.26182 14.7997L6 14L10.8695 24.2348C11.2174 24.8746 11.9129 25.1942 12.6087 24.8746C12.7812 24.8746 12.9565 24.716 13.1305 24.5547L18 18.7975L12.7826 16.7185L11.9132 22.7956Z" fill="#5DBA2F"/>
<path d="M30.8007 0.0390807L1.11422 7.99522C-0.219921 8.31352 -0.386723 9.7456 0.78062 10.223L8.11911 13.2464L29.4665 1.78946L12.6209 14.9967L24.6287 19.7704C25.2959 20.2479 26.2965 19.9282 26.7969 19.293C26.8599 19.2301 26.9075 19.1547 26.9361 19.0721C26.9648 18.9895 26.9737 18.9018 26.9623 18.8155L31.968 1.15286C32.1348 0.19823 31.6347 -0.120068 30.8007 0.0390807Z" fill="#5DBA2F"/>
</svg>
