<svg width="14" height="14" viewBox="0 0 14 14" fill="none" xmlns="http://www.w3.org/2000/svg">
<path d="M12.75 0.254639H1.25C0.973438 0.254639 0.75 0.478076 0.75 0.754639V12.2546C0.75 12.5312 0.973438 12.7546 1.25 12.7546H12.75C13.0266 12.7546 13.25 12.5312 13.25 12.2546V0.754639C13.25 0.478076 13.0266 0.254639 12.75 0.254639ZM12.125 11.6296H1.875V1.37964H12.125V11.6296ZM6.6875 4.75464H9.5625C9.63125 4.75464 9.6875 4.69839 9.6875 4.62964V3.87964C9.6875 3.81089 9.63125 3.75464 9.5625 3.75464H6.6875C6.61875 3.75464 6.5625 3.81089 6.5625 3.87964V4.62964C6.5625 4.69839 6.61875 4.75464 6.6875 4.75464ZM6.6875 7.00464H9.5625C9.63125 7.00464 9.6875 6.94839 9.6875 6.87964V6.12964C9.6875 6.06089 9.63125 6.00464 9.5625 6.00464H6.6875C6.61875 6.00464 6.5625 6.06089 6.5625 6.12964V6.87964C6.5625 6.94839 6.61875 7.00464 6.6875 7.00464ZM6.6875 9.25464H9.5625C9.63125 9.25464 9.6875 9.19839 9.6875 9.12964V8.37964C9.6875 8.31089 9.63125 8.25464 9.5625 8.25464H6.6875C6.61875 8.25464 6.5625 8.31089 6.5625 8.37964V9.12964C6.5625 9.19839 6.61875 9.25464 6.6875 9.25464ZM4.3125 4.25464C4.3125 4.4204 4.37835 4.57937 4.49556 4.69658C4.61277 4.81379 4.77174 4.87964 4.9375 4.87964C5.10326 4.87964 5.26223 4.81379 5.37944 4.69658C5.49665 4.57937 5.5625 4.4204 5.5625 4.25464C5.5625 4.08888 5.49665 3.92991 5.37944 3.8127C5.26223 3.69549 5.10326 3.62964 4.9375 3.62964C4.77174 3.62964 4.61277 3.69549 4.49556 3.8127C4.37835 3.92991 4.3125 4.08888 4.3125 4.25464ZM4.3125 6.50464C4.3125 6.6704 4.37835 6.82937 4.49556 6.94658C4.61277 7.06379 4.77174 7.12964 4.9375 7.12964C5.10326 7.12964 5.26223 7.06379 5.37944 6.94658C5.49665 6.82937 5.5625 6.6704 5.5625 6.50464C5.5625 6.33888 5.49665 6.17991 5.37944 6.0627C5.26223 5.94549 5.10326 5.87964 4.9375 5.87964C4.77174 5.87964 4.61277 5.94549 4.49556 6.0627C4.37835 6.17991 4.3125 6.33888 4.3125 6.50464ZM4.3125 8.75464C4.3125 8.9204 4.37835 9.07937 4.49556 9.19658C4.61277 9.31379 4.77174 9.37964 4.9375 9.37964C5.10326 9.37964 5.26223 9.31379 5.37944 9.19658C5.49665 9.07937 5.5625 8.9204 5.5625 8.75464C5.5625 8.58888 5.49665 8.42991 5.37944 8.3127C5.26223 8.19549 5.10326 8.12964 4.9375 8.12964C4.77174 8.12964 4.61277 8.19549 4.49556 8.3127C4.37835 8.42991 4.3125 8.58888 4.3125 8.75464Z" fill="#555555"/>
</svg>
