<svg width="24" height="24" viewBox="0 0 24 24" fill="none" xmlns="http://www.w3.org/2000/svg">
<path d="M21.487 6.72995L12 12.0005M12 12.0005L2.51291 6.72995M12 12.0005L12 22.6038M22.0451 16.5304V7.47072C22.0451 7.08829 22.0451 6.89707 21.9888 6.72653C21.9389 6.57565 21.8574 6.43716 21.7498 6.32032C21.628 6.18824 21.4609 6.09537 21.1266 5.90965L12.8673 1.32114C12.5507 1.14528 12.3925 1.05735 12.2249 1.02288C12.0765 0.992373 11.9235 0.992373 11.7752 1.02288C11.6076 1.05735 11.4493 1.14528 11.1327 1.32114L2.87342 5.90965C2.53911 6.09538 2.37196 6.18824 2.25024 6.32032C2.14256 6.43717 2.06108 6.57566 2.01123 6.72653C1.95488 6.89707 1.95488 7.08829 1.95488 7.47072V16.5304C1.95488 16.9129 1.95488 17.1041 2.01123 17.2746C2.06108 17.4255 2.14256 17.564 2.25024 17.6808C2.37196 17.8129 2.53911 17.9058 2.87342 18.0915L11.1327 22.68C11.4493 22.8559 11.6076 22.9438 11.7752 22.9783C11.9235 23.0088 12.0765 23.0088 12.2249 22.9783C12.3925 22.9438 12.5507 22.8559 12.8673 22.68L21.1266 18.0915C21.4609 17.9058 21.628 17.8129 21.7498 17.6808C21.8574 17.564 21.9389 17.4255 21.9888 17.2746C22.0451 17.1041 22.0451 16.9129 22.0451 16.5304Z" stroke="#5B6D7F" stroke-width="1.5" stroke-linecap="round" stroke-linejoin="round"/>
<path d="M17.0234 9.20953L6.97832 3.62891" stroke="#5B6D7F" stroke-width="1.5" stroke-linecap="round" stroke-linejoin="round"/>
</svg>
