<svg width="19" height="15" viewBox="0 0 19 15" fill="none" xmlns="http://www.w3.org/2000/svg">
<path d="M4.45496 3.11112V10.2222C4.45496 10.6259 4.69769 10.99 5.07034 11.1453L11.1216 13.6667M4.45496 3.11112L10.3524 0.653856C10.8447 0.448728 11.3985 0.448728 11.8909 0.653856L14.455 1.72223M4.45496 3.11112L7.78829 4.50001M11.1216 5.8889V13.6667M11.1216 5.8889L17.7883 3.11112M11.1216 5.8889L7.78829 4.50001M11.1216 13.6667L17.1729 11.1453C17.5456 10.99 17.7883 10.6259 17.7883 10.2222V3.11112M17.7883 3.11112L14.455 1.72223M7.78829 4.50001L14.455 1.72223" stroke="#8E9BA7" stroke-linejoin="round"/>
<path d="M1.83008 10.2669L1.74619 3.98989" stroke="#8E9BA7" stroke-linecap="round"/>
<path d="M2.4521 9.94667L1.83278 10.5828L1.19669 9.96345" stroke="#8E9BA7" stroke-linecap="round" stroke-linejoin="round"/>
<path d="M1.11431 4.30986L1.73362 3.67376L2.36972 4.29308" stroke="#8E9BA7" stroke-linecap="round" stroke-linejoin="round"/>
</svg>
