<svg width="24" height="24" viewBox="0 0 24 24" fill="none" xmlns="http://www.w3.org/2000/svg">
<path d="M12.1445 2.1228H5.02891C3.96869 2.1228 3.43858 2.1228 3.03363 2.33945C2.67743 2.53002 2.38783 2.8341 2.20633 3.20812C2 3.63331 2 4.18993 2 5.30315V18.8196C2 19.9329 2 20.4895 2.20633 20.9147C2.38783 21.2887 2.67743 21.5928 3.03363 21.7834C3.43858 22 3.96869 22 5.02891 22H14.1156C15.1758 22 15.706 22 16.1109 21.7834C16.4671 21.5928 16.7567 21.2887 16.9382 20.9147C17.1445 20.4895 17.1445 19.9329 17.1445 18.8196V13.577V12.5M9.57227 17.5276H9.58173M10.0455 17.5276C10.0455 17.8021 9.83364 18.0246 9.57227 18.0246C9.31089 18.0246 9.099 17.8021 9.099 17.5276C9.099 17.2532 9.31089 17.0307 9.57227 17.0307C9.83364 17.0307 10.0455 17.2532 10.0455 17.5276Z" stroke="#3B5166" stroke-width="1.5" stroke-linecap="round" stroke-linejoin="round"/>
<path d="M13.7195 7.96667C13.7195 8.67543 14.2941 9.25 15.0029 9.25H16.1945C16.9539 9.25 17.5695 8.63439 17.5695 7.875C17.5695 7.11561 16.9539 6.5 16.1945 6.5H15.0945C14.3351 6.5 13.7195 5.88439 13.7195 5.125C13.7195 4.36561 14.3351 3.75 15.0945 3.75H16.2862C16.995 3.75 17.5695 4.32457 17.5695 5.03333M15.6445 2.925V3.75M15.6445 9.25V10.075M21.1445 6.5C21.1445 9.53757 18.6821 12 15.6445 12C12.607 12 10.1445 9.53757 10.1445 6.5C10.1445 3.46243 12.607 1 15.6445 1C18.6821 1 21.1445 3.46243 21.1445 6.5Z" stroke="#3B5166" stroke-width="1.5" stroke-linecap="round" stroke-linejoin="round"/>
</svg>
