<svg width="21" height="23" viewBox="0 0 21 23" fill="none" xmlns="http://www.w3.org/2000/svg">
<path d="M4.79703 21.2674H7.30291C7.62963 21.2674 7.95436 21.2998 8.27109 21.3646L10.9189 21.9008C11.4934 22.0174 12.0919 22.0287 12.6724 21.9348L15.5999 21.4601C16.3732 21.3346 17.0846 21.026 17.6422 20.5741L19.7134 18.895C20.3049 18.4163 20.3049 17.6396 19.7134 17.1601C19.1809 16.7284 18.3376 16.6798 17.7351 17.0459L15.3211 18.5135C14.9754 18.7241 14.5548 18.8375 14.1221 18.8375H11.7911L13.2749 18.8375C14.1111 18.8375 14.7886 18.2883 14.7886 17.6104V17.365C14.7886 16.8021 14.7956 16.1705 14.1221 16.0345L11.3525 15.711C10.9798 15.6357 10.5981 15.5977 10.2144 15.5977C9.28823 15.5977 7.61165 16.2367 7.61165 16.2367L4.79703 17.2176M0.957031 16.8777L0.957031 21.5177C0.957031 21.9657 0.957031 22.1897 1.06166 22.3608C1.1537 22.5114 1.30056 22.6338 1.4812 22.7105C1.68656 22.7977 1.95538 22.7977 2.49303 22.7977H3.26103C3.79868 22.7977 4.06751 22.7977 4.27286 22.7105C4.4535 22.6338 4.60036 22.5114 4.6924 22.3608C4.79703 22.1897 4.79703 21.9657 4.79703 21.5177V16.8777C4.79703 16.4296 4.79703 16.2056 4.6924 16.0345C4.60036 15.8839 4.4535 15.7616 4.27286 15.6849C4.06751 15.5977 3.79868 15.5977 3.26103 15.5977L2.49303 15.5977C1.95538 15.5977 1.68656 15.5977 1.4812 15.6849C1.30056 15.7615 1.1537 15.8839 1.06167 16.0345C0.957031 16.2056 0.957031 16.4296 0.957031 16.8777Z" stroke="#5B6D7F" stroke-width="1.5" stroke-linecap="round" stroke-linejoin="round"/>
<path d="M19.8554 4.32448L14.7555 7.1992M14.7555 7.1992L9.65545 4.32448M14.7555 7.1992L14.7555 12.9825M20.1555 9.66992V4.72852C20.1555 4.51993 20.1555 4.41564 20.1252 4.32262C20.0984 4.24033 20.0546 4.16479 19.9967 4.10106C19.9313 4.02902 19.8414 3.97837 19.6617 3.87707L15.2217 1.37437C15.0515 1.27846 14.9664 1.2305 14.8763 1.2117C14.7966 1.19506 14.7143 1.19506 14.6346 1.2117C14.5445 1.2305 14.4594 1.27846 14.2893 1.37437L9.84925 3.87707C9.66954 3.97837 9.57968 4.02902 9.51425 4.10106C9.45636 4.16479 9.41256 4.24033 9.38576 4.32262C9.35547 4.41564 9.35547 4.51993 9.35547 4.72852V9.66992C9.35547 9.87851 9.35547 9.9828 9.38576 10.0758C9.41256 10.1581 9.45636 10.2336 9.51425 10.2974C9.57968 10.3694 9.66954 10.4201 9.84925 10.5214L14.2893 13.0241C14.4594 13.12 14.5445 13.1679 14.6346 13.1867C14.7143 13.2034 14.7966 13.2034 14.8763 13.1867C14.9664 13.1679 15.0515 13.12 15.2217 13.0241L19.6617 10.5214C19.8414 10.4201 19.9313 10.3694 19.9967 10.2974C20.0546 10.2336 20.0984 10.1581 20.1252 10.0758C20.1555 9.9828 20.1555 9.87851 20.1555 9.66992Z" stroke="#5B6D7F" stroke-width="1.5" stroke-linecap="round" stroke-linejoin="round"/>
</svg>
