<svg width="25" height="24" viewBox="0 0 25 24" fill="none" xmlns="http://www.w3.org/2000/svg">
    <path d="M6.3815 21.2698H8.88738C9.21411 21.2698 9.53883 21.3022 9.85556 21.367L12.5033 21.9031C13.0778 22.0198 13.6763 22.0311 14.2568 21.9372L17.1844 21.4625C17.9577 21.337 18.6691 21.0284 19.2266 20.5764L21.2979 18.8974C21.8894 18.4187 21.8894 17.642 21.2979 17.1625C20.7653 16.7308 19.922 16.6822 19.3196 17.0483L16.9056 18.5159C16.5599 18.7265 16.1392 18.8399 15.7066 18.8399H13.3756L14.8593 18.8398C15.6956 18.8398 16.373 18.2907 16.373 17.6128V17.3674C16.373 16.8044 16.38 16.1729 15.7066 16.0368L12.937 15.7134C12.5643 15.6381 12.1826 15.6 11.7989 15.6C10.8727 15.6 9.19612 16.2391 9.19612 16.2391L6.3815 17.2199M2.5415 16.88L2.5415 21.52C2.5415 21.9681 2.5415 22.1921 2.64614 22.3632C2.73818 22.5138 2.88504 22.6361 3.06567 22.7128C3.27103 22.8 3.53985 22.8 4.0775 22.8H4.8455C5.38315 22.8 5.65198 22.8 5.85733 22.7128C6.03797 22.6361 6.18483 22.5138 6.27687 22.3632C6.3815 22.1921 6.3815 21.9681 6.3815 21.52V16.88C6.3815 16.432 6.3815 16.208 6.27687 16.0368C6.18483 15.8863 6.03797 15.7639 5.85734 15.6872C5.65198 15.6 5.38316 15.6 4.8455 15.6L4.0775 15.6C3.53985 15.6 3.27103 15.6 3.06567 15.6872C2.88504 15.7639 2.73818 15.8863 2.64614 16.0368C2.5415 16.208 2.5415 16.432 2.5415 16.88Z" stroke="#3B5166" stroke-width="1.5" stroke-linecap="round" stroke-linejoin="round"/>
    <path d="M21.4414 4.32528L16.3414 7.19999M16.3414 7.19999L11.2414 4.32528M16.3414 7.19999L16.3414 12.9833M21.7414 9.67071V4.72931C21.7414 4.52072 21.7414 4.41643 21.7111 4.32341C21.6843 4.24112 21.6405 4.16558 21.5826 4.10185C21.5172 4.02981 21.4273 3.97916 21.2476 3.87786L16.8076 1.37517C16.6375 1.27925 16.5524 1.23129 16.4623 1.21249C16.3825 1.19585 16.3003 1.19585 16.2205 1.21249C16.1304 1.23129 16.0454 1.27925 15.8752 1.37517L11.4352 3.87786C11.2555 3.97916 11.1656 4.02981 11.1002 4.10185C11.0423 4.16558 10.9985 4.24112 10.9717 4.32341C10.9414 4.41643 10.9414 4.52072 10.9414 4.72931V9.67071C10.9414 9.8793 10.9414 9.9836 10.9717 10.0766C10.9985 10.1589 11.0423 10.2344 11.1002 10.2982C11.1656 10.3702 11.2555 10.4209 11.4352 10.5222L15.8752 13.0249C16.0454 13.1208 16.1304 13.1687 16.2205 13.1875C16.3003 13.2042 16.3825 13.2042 16.4623 13.1875C16.5524 13.1687 16.6375 13.1208 16.8076 13.0249L21.2476 10.5222C21.4273 10.4209 21.5172 10.3702 21.5826 10.2982C21.6405 10.2344 21.6843 10.1589 21.7111 10.0766C21.7414 9.9836 21.7414 9.8793 21.7414 9.67071Z" stroke="#3B5166" stroke-width="1.5" stroke-linecap="round" stroke-linejoin="round"/>
</svg>
