<svg width="24" height="24" viewBox="0 0 24 24" fill="none" xmlns="http://www.w3.org/2000/svg">
<g id="user-minus-01">
<g id="Group 633904">
<g id="Group 633903">
<path id="Vector" d="M16.7008 19.7023C17.6121 19.7023 18.3508 18.9636 18.3508 18.0523C18.3508 17.1411 17.6121 16.4023 16.7008 16.4023C15.7895 16.4023 15.0508 17.1411 15.0508 18.0523C15.0508 18.9636 15.7895 19.7023 16.7008 19.7023Z" stroke="#5B6D7F" stroke-width="1.5" stroke-miterlimit="10" stroke-linecap="round" stroke-linejoin="round"/>
<path id="Vector_2" d="M10.9258 18.5131V17.5901C10.9258 17.0447 11.4164 16.5937 12.0225 16.5937C13.0672 16.5937 13.4944 15.9224 12.9691 15.099C12.669 14.6271 12.8479 14.0135 13.3732 13.7408L14.3717 13.2216C14.8277 12.9751 15.4165 13.122 15.6878 13.5363L15.7513 13.6359C16.2708 14.4592 17.125 14.4592 17.6503 13.6359L17.7138 13.5363C17.9851 13.122 18.5738 12.9751 19.0298 13.2216L20.0284 13.7408C20.5537 14.0135 20.7326 14.6271 20.4325 15.099C19.9072 15.9224 20.3343 16.5937 21.3791 16.5937C21.9794 16.5937 22.4758 17.0394 22.4758 17.5901V18.5131C22.4758 19.0585 21.9852 19.5095 21.3791 19.5095C20.3343 19.5095 19.9072 20.1807 20.4325 21.0041C20.7326 21.4813 20.5537 22.0896 20.0284 22.3623L19.0298 22.8815C18.5738 23.128 17.9851 22.9812 17.7138 22.5669L17.6503 22.4672C17.1308 21.6439 16.2765 21.6439 15.7513 22.4672L15.6878 22.5669C15.4165 22.9812 14.8277 23.128 14.3717 22.8815L13.3732 22.3623C12.8479 22.0896 12.669 21.4761 12.9691 21.0041C13.4944 20.1807 13.0672 19.5095 12.0225 19.5095C11.4164 19.5095 10.9258 19.0585 10.9258 18.5131Z" stroke="#5B6D7F" stroke-width="1.5" stroke-miterlimit="10" stroke-linecap="round" stroke-linejoin="round"/>
</g>
</g>
<path id="Vector_3" d="M10 12C12.7614 12 15 9.76142 15 7C15 4.23858 12.7614 2 10 2C7.23858 2 5 4.23858 5 7C5 9.76142 7.23858 12 10 12Z" stroke="#5B6D7F" stroke-width="1.5" stroke-linecap="round" stroke-linejoin="round"/>
<path id="Vector_4" d="M1 22C1 18.13 4.85 15 9.59 15" stroke="#5B6D7F" stroke-width="1.5" stroke-linecap="round" stroke-linejoin="round"/>
</g>
</svg>
