<svg width="24" height="24" viewBox="0 0 24 24" fill="none" xmlns="http://www.w3.org/2000/svg">
<path d="M20.8398 12.3882C21.7533 12.7556 22.3202 13.8371 22.1102 14.7926L21.6798 16.7456C20.9343 20.1056 18.2988 22.4995 14.4978 22.4995H9.49986C5.6989 22.4995 3.06344 20.1056 2.31795 16.7456L1.88744 14.7926C1.67745 13.8371 2.24443 12.7556 3.15792 12.3882L4.64893 11.7897L10.4344 9.46921C11.4424 9.07022 12.5554 9.07022 13.5633 9.46921L19.3488 11.7897L20.8398 12.3882Z" stroke="#5B6D7F" stroke-width="1.5" stroke-linecap="round" stroke-linejoin="round"/>
<path d="M12 22.3509L12 9.30103" stroke="#5B6D7F" stroke-width="1.5" stroke-linecap="round" stroke-linejoin="round"/>
<path d="M19.349 7.79993V11.7899L13.5636 9.46941C12.5556 9.07042 11.4426 9.07042 10.4346 9.46941L4.64917 11.7899V7.79993C4.64917 6.06745 6.06665 4.64996 7.79914 4.64996H16.199C17.9315 4.64996 19.349 6.06745 19.349 7.79993Z" stroke="#5B6D7F" stroke-width="1.5" stroke-linecap="round" stroke-linejoin="round"/>
<path d="M14.6241 4.64997H9.37415V2.54999C9.37415 1.97249 9.84664 1.5 10.4241 1.5H13.5741C14.1516 1.5 14.6241 1.97249 14.6241 2.54999V4.64997Z" stroke="#5B6D7F" stroke-width="1.5" stroke-linecap="round" stroke-linejoin="round"/>
</svg>
