<svg width="20" height="20" viewBox="0 0 20 20" fill="none" xmlns="http://www.w3.org/2000/svg">
<path d="M13.3333 4.16689L13.3333 15.8336M8.33333 3.33355L8.33333 16.6669M2.5 10.0002H10H17.5M2.5 4.99119L2.5 15.0092C2.5 16.1459 2.5 16.7143 2.73445 17.1082C2.94002 17.4536 3.2635 17.7131 3.64528 17.8389C4.0807 17.9823 4.63552 17.859 5.74515 17.6124L15.4118 15.4643C16.1569 15.2987 16.5295 15.2159 16.8076 15.0155C17.0528 14.8388 17.2455 14.5987 17.3648 14.3209C17.5 14.006 17.5 13.6244 17.5 12.8611V7.13934C17.5 6.37607 17.5 5.99443 17.3648 5.6795C17.2455 5.40171 17.0528 5.16161 16.8076 4.98489C16.5295 4.78455 16.1569 4.70176 15.4118 4.53618L5.74515 2.38803C4.63552 2.14145 4.0807 2.01815 3.64528 2.16156C3.2635 2.28731 2.94002 2.54679 2.73445 2.89221C2.5 3.28615 2.5 3.8545 2.5 4.99119Z" stroke="#8E9BA7" stroke-width="1.5" stroke-linecap="round" stroke-linejoin="round"/>
</svg>
