<svg width="14" height="14" viewBox="0 0 14 14" fill="none" xmlns="http://www.w3.org/2000/svg">
<path d="M12.4136 10.4321C12.1189 9.73394 11.6911 9.09977 11.1542 8.56492C10.619 8.02853 9.98491 7.60086 9.28705 7.30554C9.2808 7.30242 9.27455 7.30086 9.2683 7.29773C10.2417 6.59461 10.8746 5.44929 10.8746 4.1571C10.8746 2.01648 9.14018 0.282104 6.99955 0.282104C4.85893 0.282104 3.12455 2.01648 3.12455 4.1571C3.12455 5.44929 3.75736 6.5946 4.7308 7.29929C4.72455 7.30242 4.7183 7.30398 4.71205 7.30711C4.01205 7.60242 3.38393 8.02586 2.84486 8.56648C2.30847 9.10174 1.88081 9.73581 1.58549 10.4337C1.29537 11.1169 1.1389 11.8494 1.12455 12.5915C1.12413 12.6082 1.12706 12.6247 1.13315 12.6403C1.13925 12.6558 1.14839 12.67 1.16004 12.6819C1.17169 12.6938 1.18561 12.7033 1.20098 12.7098C1.21636 12.7163 1.23287 12.7196 1.24955 12.7196H2.18705C2.2558 12.7196 2.31049 12.6649 2.31205 12.5977C2.3433 11.3915 2.82768 10.2618 3.68393 9.40554C4.56986 8.51961 5.74643 8.03211 6.99955 8.03211C8.25268 8.03211 9.42924 8.51961 10.3152 9.40554C11.1714 10.2618 11.6558 11.3915 11.6871 12.5977C11.6886 12.6665 11.7433 12.7196 11.8121 12.7196H12.7496C12.7662 12.7196 12.7827 12.7163 12.7981 12.7098C12.8135 12.7033 12.8274 12.6938 12.8391 12.6819C12.8507 12.67 12.8599 12.6558 12.8659 12.6403C12.872 12.6247 12.875 12.6082 12.8746 12.5915C12.8589 11.8446 12.7042 11.118 12.4136 10.4321ZM6.99955 6.84461C6.28236 6.84461 5.60736 6.56492 5.09955 6.05711C4.59174 5.54929 4.31205 4.87429 4.31205 4.1571C4.31205 3.43992 4.59174 2.76492 5.09955 2.2571C5.60736 1.74929 6.28236 1.4696 6.99955 1.4696C7.71674 1.4696 8.39174 1.74929 8.89955 2.2571C9.40736 2.76492 9.68705 3.43992 9.68705 4.1571C9.68705 4.87429 9.40736 5.54929 8.89955 6.05711C8.39174 6.56492 7.71674 6.84461 6.99955 6.84461Z" fill="#5DBA2F"/>
</svg>
