<svg width="24" height="24" viewBox="0 0 24 24" fill="none" xmlns="http://www.w3.org/2000/svg">
    <path d="M4 10.5305C4 10.0093 4 9.74865 4.0658 9.50865C4.12409 9.29606 4.21988 9.0961 4.34847 8.91861C4.49363 8.71824 4.69513 8.55824 5.09812 8.23824L11.1268 3.45116C11.4391 3.20319 11.5953 3.0792 11.7677 3.03154C11.9198 2.98949 12.0802 2.98949 12.2323 3.03154C12.4047 3.0792 12.5609 3.20319 12.8732 3.45116L18.9019 8.23824C19.3049 8.55824 19.5064 8.71824 19.6515 8.91861C19.7801 9.0961 19.8759 9.29606 19.9342 9.50865C20 9.74865 20 10.0093 20 10.5305V17.0961C20 18.1125 20 18.6208 19.8062 19.009C19.6358 19.3505 19.3638 19.6282 19.0293 19.8022C18.649 20 18.1512 20 17.1556 20H6.84444C5.8488 20 5.35097 20 4.97068 19.8022C4.63617 19.6282 4.36421 19.3505 4.19377 19.009C4 18.6208 4 18.1125 4 17.0961V10.5305Z"
          stroke="#3B5166" stroke-width="1.5" stroke-linecap="round" stroke-linejoin="round"/>
</svg>
