<svg width="24" height="24" viewBox="0 0 24 24" fill="none" xmlns="http://www.w3.org/2000/svg">
<rect width="24" height="24" rx="8" fill="#F5F5F5"/>
<path d="M15.387 13.655C15.4549 13.6954 15.5387 13.7427 15.6336 13.7962C16.0494 14.0308 16.6779 14.3854 17.1085 14.8069C17.3778 15.0705 17.6337 15.4178 17.6802 15.8434C17.7297 16.296 17.5323 16.7207 17.1362 17.098C16.4528 17.7491 15.6328 18.2708 14.5721 18.2708H9.42811C8.36743 18.2708 7.54739 17.7491 6.86404 17.098C6.46795 16.7207 6.27051 16.296 6.31998 15.8434C6.3665 15.4178 6.62238 15.0705 6.89169 14.8069C7.32229 14.3854 7.95084 14.0308 8.36664 13.7962C8.46152 13.7427 8.54534 13.6954 8.61319 13.655C10.6864 12.4205 13.3138 12.4205 15.387 13.655Z" fill="#5B6D7F"/>
<path d="M8.9376 8.79163C8.9376 7.10025 10.3087 5.72913 12.0001 5.72913C13.6915 5.72913 15.0626 7.10025 15.0626 8.79163C15.0626 10.483 13.6915 11.8541 12.0001 11.8541C10.3087 11.8541 8.9376 10.483 8.9376 8.79163Z" fill="#5B6D7F"/>
</svg>
