<svg width="122" height="37" viewBox="0 0 122 37" fill="none" xmlns="http://www.w3.org/2000/svg">
<path d="M11.0978 36.6157C4.19911 36.6157 0 32.7165 0 25.5174C0 17.219 5.39919 10.8203 13.8972 10.8203C20.496 10.8203 24.995 14.5199 24.995 21.3193C24.9955 29.6167 19.9965 36.6157 11.0978 36.6157ZM7.4985 25.9176C7.4985 28.9171 8.99849 30.6167 11.5973 30.6167C15.6962 30.6167 17.3962 24.7175 17.3962 21.5184C17.3962 19.0189 16.3962 16.8193 13.497 16.8193C9.09783 16.8193 7.49803 22.3183 7.49803 25.9176H7.4985Z" fill="#5DBA2F"/>
<path d="M47.782 36.2138H40.5829L37.0839 26.4159C36.5373 24.8746 36.0704 23.3061 35.6852 21.7168C35.6852 21.7168 35.1823 25.2671 34.7855 27.0157L32.8834 36.314H25.5859L30.785 11.7188H38.2835L41.5829 21.4173C42.1827 22.9173 42.5829 24.5166 43.0829 26.1164C43.2851 24.2034 43.5854 22.302 43.9826 20.4197L45.7835 11.8181H52.9821L47.782 36.2138Z" fill="#5DBA2F"/>
<path d="M76.2857 17.3223H63.3904L62.6907 20.5238H74.6887L73.4891 26.2205H61.4902L60.7906 29.72H73.9882L72.6883 36.1192H51.9922L57.1913 11.5234H77.4881L76.2857 17.3223Z" fill="#5DBA2F"/>
<path d="M94.0781 23.2228L100.077 36.2203H91.4778L89.9788 32.4209C89.4895 31.2528 89.0885 30.0497 88.7792 28.8216C87.962 30.233 87.0254 31.5718 85.9798 32.8234L83.1804 36.3229H73.7812L85.4789 23.3236L79.7802 11.625H87.9784L88.9783 14.4244C89.4783 15.7243 89.8781 17.124 90.2782 18.5232C91.1779 17.1235 92.1779 15.5237 92.878 14.624L95.1779 11.625H104.176L94.0781 23.2228Z" fill="#5DBA2F"/>
<path d="M109.673 13.8193L107.574 8.82031L106.273 8.32031L109.073 14.719C109.109 14.8138 109.164 14.9 109.235 14.9723C109.306 15.0446 109.391 15.1014 109.485 15.139C109.579 15.1766 109.68 15.1943 109.781 15.1909C109.882 15.1875 109.982 15.1631 110.073 15.1192C110.172 15.1192 110.273 15.0199 110.373 14.9191L113.172 11.3198L110.173 10.0199L109.673 13.8193Z" fill="#5DBA2F"/>
<path d="M121.277 0.0246637L103.481 5.02367C102.68 5.22376 102.581 6.12347 103.281 6.42337L107.68 8.32306L120.477 1.12446L110.377 9.42286L117.576 12.4224C117.79 12.5471 118.044 12.5856 118.285 12.5298C118.527 12.4741 118.738 12.3284 118.876 12.1225C118.914 12.083 118.942 12.0356 118.96 11.9837C118.977 11.9318 118.982 11.8768 118.975 11.8226L121.976 0.72475C122.077 0.124474 121.777 -0.0756177 121.277 0.0246637Z" fill="#5DBA2F"/>
</svg>
