<svg width="47" height="37" viewBox="0 0 47 37" fill="none" xmlns="http://www.w3.org/2000/svg">
<path d="M16.8078 33.6584L11.6655 21.4828L8.47949 20.265L15.3382 35.8497C15.426 36.0805 15.561 36.2905 15.7348 36.4666C15.9086 36.6427 16.1173 36.781 16.3476 36.8726C16.578 36.9643 16.8251 37.0073 17.0731 36.999C17.3211 36.9907 17.5646 36.9313 17.7883 36.8244C18.0317 36.8244 18.2785 36.5825 18.5231 36.3371L25.3818 27.5706L18.0328 24.4046L16.8078 33.6584Z" fill="#5DBA2F"/>
<path d="M45.2395 0.0600709L1.63697 12.2357C-0.323987 12.723 -0.56738 14.9143 1.14673 15.6448L11.9251 20.2717L43.2797 2.73875L18.5347 22.9504L36.1718 30.2559C36.6965 30.5598 37.318 30.6534 37.9097 30.5177C38.5014 30.382 39.0188 30.0272 39.3566 29.5255C39.4493 29.4294 39.5192 29.314 39.5613 29.1876C39.6035 29.0612 39.6166 28.9271 39.6 28.795L46.9524 1.7652C47.1993 0.30317 46.4645 -0.184175 45.2395 0.0600709Z" fill="#5DBA2F"/>
</svg>
